# xmcd
#
# Track frame offsets:
#	150
#	17901
#	36421
#	48315
#	64318
#	82316
#	100243
#	121243
#	135538
#	153246
#
# Disc length: 2257 seconds
#
# Revision: 0
# Processed by: cddbd v1.5.2PL0 Copyright (c) Steve Scherf et al.
# Submitted via: EasyCDDAExtractor 16.0.9.1
#
DISCID=8708cf0a
DTITLE=Andres Calamaro - Vida cruel
DYEAR=1985
DGENRE=rock argentino
TTITLE0=Que vida cruel
TTITLE1=Dice un proverbio chino
TTITLE2=El mejor hotel
TTITLE3=Vi la raya
TTITLE4=Fotos de ídolos
TTITLE5=Acto simple
TTITLE6=Sin despedirme
TTITLE7=Sobran habitaciones
TTITLE8=No me manden al Africa
TTITLE9=Principios
EXTD=
EXTT0=
EXTT1=
EXTT2=
EXTT3=
EXTT4=
EXTT5=
EXTT6=
EXTT7=
EXTT8=
EXTT9=
PLAYORDER=
